<?xml version="1.0" encoding="utf-8"?>
<!-- Generator: Adobe Illustrator 16.0.3, SVG Export Plug-In . SVG Version: 6.00 Build 0)  -->
<!DOCTYPE svg PUBLIC "-//W3C//DTD SVG 1.1//EN" "http://www.w3.org/Graphics/SVG/1.1/DTD/svg11.dtd">
<svg version="1.1" id="Layer_1" xmlns="http://www.w3.org/2000/svg" xmlns:xlink="http://www.w3.org/1999/xlink" x="0px" y="0px"
	 width="2860.442px" height="4000px" viewBox="0 0 2860.442 4000" enable-background="new 0 0 2860.442 4000" xml:space="preserve">
<g>
	<path d="M914.666,1725.619c-10.096-7.537-20.188-15.077-33.475-24.992c-1.533,25.688-2.744,47.01-4.088,68.317
		c-2.162,34.312-5.541,68.591-6.384,102.932c-1.461,60.003-2.436,120.054-1.557,180.06c0.5,34.254,1.951,69.074,8.719,102.479
		c6.105,30.154,5.265,59.91,5.957,89.931c0.095,4.021-3.496,8.122-5.377,12.188c-4.123-2.261-9.182-3.655-12.219-6.929
		c-20.143-21.683-40.123-43.532-59.527-65.873c-5.407-6.232-9.676-13.914-12.811-21.604c-18.426-45.203-16.357-94.061-23.189-141.2
		c-8.381-57.797-10.551-116.481-15.866-174.739c-4.623-50.668-10.402-101.23-14.664-151.931c-2.49-29.605-2.734-59.405-4.648-89.08
		c-0.342-5.308-2.389-12.356-6.2-15.29c-33.103-25.474-66.781-50.194-100.332-75.091c-1.019-0.755-2.478-0.917-3.017-1.102
		c-24.269,24.244-40.438,53.058-52.604,84.188c-16.164,41.36-31.687,82.975-47.73,124.382
		c-16.705,43.107-32.569,86.602-51.057,128.935c-9.428,21.581-24.682,40.541-35.615,61.56
		c-7.152,13.752-11.282,29.081-14.453,44.683c9.267-18.528,13.671-39.483,32.979-52.661c-1.102,3.995-1.167,8.757-3.468,11.865
		c-21.431,28.921-21.981,62.188-19.341,95.672c0.628,7.974,5.773,16.72,11.295,22.93c10.703,12.038,23.375,22.309,34.761,33.771
		c4.467,4.498,7.666,10.246,12.691,17.14c0.341-3.021,1.646-6.038,0.77-8.152c-9.066-21.772-18.314-43.479-27.875-65.042
		c-5.697-12.854,12.063-66.08,24.813-72.661c1.677-0.865,4.021-0.436,4.082-0.442c-6.121,17.553-13.219,34.697-17.729,52.495
		c-1.727,6.81,1.898,15.281,4.104,22.697c3.438,11.57,7.737,22.882,11.669,34.304c1.354-0.135,2.71-0.267,4.068-0.398
		c-0.534-11.559-2.947-23.438-1.048-34.584c1.689-9.929-3.016-24.083,12.459-30.938c-1.029,12.113-1.871,22.009-2.826,33.324
		c12.173-4.467,21.791-7.998,33.269-12.209c-10.112,23.582-13.089,45.438,7.261,68.01c7.102-28.193,6.825-56.646,28.774-78.842
		c-6.75,22.502-13.539,41.6-18.033,61.217c-3.467,15.146,2.068,20.713,17.095,21.926c5.676-20.476,11.36-40.976,17.043-61.465
		c0.862,0.299,1.725,0.601,2.586,0.896c-2.615,14.013-5.904,27.938-7.683,42.055c-2.274,18.071,4.886,26.479,21.273,35.444
		c20.194,11.042,40.963,21.808,54.975,41.64c4.666,6.604,12.045,11.291,18.188,16.853c1.375-0.896,2.742-1.794,4.113-2.69
		c-3.111-10.682-6.847-21.227-9.193-32.068c-4.021-18.592-8.021-37.27-10.369-56.112c-1.365-10.945,5.109-12.813,15.1-8.894
		c18.205,7.15,36.156,14.08,42.902,37.414c17.537-25.342,18.813-50.727,14.002-76.929c-0.547-2.961-5.207-6.25-8.631-7.433
		c-26.746-9.237-53.506-18.479-80.551-26.779c-37.578-11.541-75.33-22.545-113.262-32.849c-3.404-0.929-9.416,4.229-12.84,7.862
		c-3.216,3.409-4.615,8.541-7.627,14.529c-9.352-8.702-4.154-16.673-0.971-22.802c8.418-16.176,18.248-31.617,27.343-47.448
		c2.244-3.906,4.144-8.08,5.662-12.32c7.707-21.523,20.81-25.76,42.189-16.887c42.616,17.676,85.846,33.881,128.809,50.721
		c31.101,12.188,39.3,15.736,40.406,53.188c0.769,25.931,1.039,51.907,2.844,77.771c1.648,23.64-9.896,42.3-20.539,61.433
		c-2.125,3.823-6.012,7.415-9.952,9.258c-3.509,1.643-8.906,2.056-12.138,0.404c-2.021-1.032-2.875-7.229-2.021-10.527
		c4.379-16.938-9.904-40.563-27.25-42.909c-2.396-0.323-8.002,4.729-7.797,6.877c0.592,6.227,3.391,12.237,5.319,18.334
		c5.078,16.061,10.326,32.066,15.093,48.218c1,3.388,1.11,7.558,0.098,10.897c-2.045,6.726-5.146,13.124-7.807,19.66
		c-5.902-2.855-12.814-4.592-17.498-8.803c-9.707-8.729-17.632-19.437-27.347-28.148c-34.942-31.35-73.727-54.176-122.978-51.124
		c-4.818,0.3-10.708,1.912-14,5.093c-14.913,14.396-32.749,9.295-50.081,9.226c-10.022-0.04-20.319,0.56-30.033,2.824
		c-25.968,6.049-45.973-2.8-64.504-20.784c-27.187-26.386-38.901-60.654-50.44-94.869c-3.156-9.354-0.438-20.872,0.373-31.337
		c2.096-26.987,4.176-53.99,7.24-80.872c1.012-8.865,4.555-17.568,7.789-26.021c4.889-12.752,10.52-25.223,15.832-37.807
		c1.293,0.521,2.586,1.054,3.883,1.579c-2.984,7.376-5.696,14.876-9,22.104c-13.176,28.847-11.938,59.815-13.735,90.368
		c-0.401,6.798-0.933,13.734-2.644,20.285c-7.43,28.52,6.156,52.59,14.852,78.086c8.479,24.864,24.313,43.5,43.917,59.396
		c14.978,12.141,16.144,11.646,38.952,7.985c-9.644-14.518-13.516-31.498-31.889-38.698c-17.349-6.799-20.154-14.538-19.98-33.381
		c0.218-23.749-2.98-47.639-1.406-71.239c1.667-24.95,6.65-49.747,11.316-74.397c2.082-11.016,6.926-21.509,10.52-32.24
		c1.354,0.321,2.71,0.644,4.068,0.967c-2.262,8.036-4.655,16.034-6.751,24.116c-7.22,27.827-14.563,55.377-8.896,84.893
		c2.802,14.579,4.194,30.549,1.25,44.863c-5.387,26.162,2.754,43.101,25.979,55.104c6.042,3.123,11.146,10.023,14.313,16.371
		c8.355,16.726,19.543,22.461,43.809,19.252c-9.55-8.614-18.056-16.898-27.197-24.405c-19.579-16.064-31.092-37.119-31.083-61.75
		c0.008-24.011,3.688-48.227,7.89-71.979c7.269-41.081,31.955-75.506,45.781-114.146c8.634-24.135,17.214-48.291,25.295-72.607
		c6.449-19.402,12.758-38.9,17.965-58.661c7.472-28.345,13.45-57.082,20.988-85.407c2.667-10.03,0.095-16.226-7.471-22.646
		c-44.353-37.646-89.338-74.62-132.277-113.822c-45.965-41.968-89.84-86.223-134.762-129.337
		c-18.155-17.418-37.403-33.758-54.813-51.878c-16.799-17.485-31.722-36.761-47.736-55.018
		c-21.75-24.792-44.846-48.489-65.358-74.253c-23.896-29.998-46.366-61.215-67.925-92.947C7.634,1044.1,3.717,1029.16,0,1014.117
		c163.499,186.139,350.958,344.002,550.603,488.624c10.012-11.008,10.344-18.776,1.047-25.886
		c-32.701-25.008-65.66-49.684-98.106-75.012c-12.614-9.84-23.78-21.523-36.224-31.612c-34.832-28.247-69.291-57.022-105.175-83.889
		c-48.929-36.62-94.472-76.893-137.83-119.854c-36.396-36.063-74.021-70.837-103.563-113.272
		c-9.842-14.142-23.452-25.604-34.135-39.234c-8.037-10.266-14.342-21.911-20.967-33.209c-1.495-2.55-2.531-6.923-1.358-9.221
		c7.34-14.382,15.358-28.407,24.252-44.541c9.444,10.188,16.637,17.068,22.825,24.757c37.925,47.089,73.021,96.791,114.201,140.81
		c33.541,35.854,73.844,65.498,112.004,96.854c16.926,13.903,35.696,25.645,54.135,37.589c10.951,7.089,22.634,13.188,34.429,18.805
		c16.569,7.885,34.805-0.784,38.465-20.672c4.19-22.78,7.608-46.39,6.268-69.338c-2.221-37.871-5.896-76.059-13.785-113.084
		c-10.004-46.968-24.629-92.961-37.642-139.27c-9.905-35.243-21.032-70.148-30.448-105.52c-9.529-35.8-18.259-71.85-26.179-108.044
		c-8.284-37.856-16.882-75.782-22.11-114.118c-3.572-26.201-1.881-53.152-2.031-79.771c-0.125-21.476-0.236-42.998,0.979-64.421
		c2.001-35.204,5.071-70.345,7.729-105.51c0.173-2.28,1.216-4.646,0.854-6.804c-5.037-30.111,3.813-59.004,9.501-87.735
		c5.889-29.765,16.135-58.727,25.646-87.648c1.668-5.063,8.795-10.618,14.056-11.367c3.23-0.462,9.104,7.137,11.396,12.2
		c14.291,31.609,28.196,63.4,41.619,95.392c7.098,16.908,12.739,34.422,19.446,51.5c9.533,24.275,19.743,48.282,29.103,72.62
		c10.16,26.425,20.861,52.729,29.197,79.744c13.616,44.118,25.907,88.67,37.854,133.276c2.908,10.859,2.32,22.653,3.73,38.347
		c4.78-7.018,8.075-10.811,10.229-15.162c19.882-40.193,39.958-80.296,59.146-120.823c10.199-21.538,18.684-43.884,28.063-65.813
		c14.601-34.12,30.779-67.653,43.521-102.45c11.613-31.72,20.711-64.503,28.815-97.332c10.978-44.457,20.705-89.263,29.416-134.221
		c3.563-18.404,9.146-34.811,22.949-47.659c1.983-1.851,6.834-3.521,8.254-2.462c2.83,2.109,5.726,6.101,5.908,9.459
		c0.973,17.716,0.686,35.5,1.608,53.22c3.135,60.025,7.188,120.005,9.715,180.051c1.441,34.333,0.394,68.766,0.843,103.149
		c0.526,40.366,1.76,80.727,2.086,121.089c0.127,15.566-2.314,31.17-1.986,46.722c1.027,48.658,2.986,97.295,4.269,145.942
		c1.155,43.93,1.969,87.872,2.793,131.806c0.836,44.477,1.077,88.967,2.356,133.429c1.233,43.017,2.685,86.046,5.437,128.981
		c4.668,72.833,9.737,145.659,15.969,218.371c4.807,56.05,10.928,112.018,17.906,167.839c3.33,26.632,10.018,52.843,15.182,79.247
		c1.369,0.28,2.731,0.555,4.102,0.839c2.59-4.756,6.244-9.219,7.596-14.306c8.386-31.396,8.711-63.153,4.189-95.264
		c-1.771-12.58-1.801-25.543-1.197-38.264c0.416-8.823,14.943-19.334,23.98-19.376c9.471-0.05,11.438,6.919,12.193,13.775
		c4.631,41.841,8.229,83.62,5.371,125.937c-3.063,45.286-3.668,90.741-5.146,136.13c-0.092,2.932,0.627,7.341,2.58,8.646
		c17.328,11.56,35.021,22.573,53.947,32.618c-19.105-41.438-19.681-85.991-26.496-129.09c-3.41-21.577-1.584-43.977-2.271-65.993
		c-1.961-63.306-4.32-126.6-5.885-189.909c-1.039-42.165,0.453-84.436-1.758-126.521c-3.242-61.81-8.738-123.504-13.346-185.239
		c-4.197-56.313-8.57-112.61-12.668-168.929c-0.779-10.715,9.77-21.397,24.912-23.569c24.481-3.509,49.184-5.493,73.729-8.586
		c8.726-1.099,11.783,2.629,11.894,10.549c0.17,12.851,0.932,25.716,0.534,38.549c-1.666,53.56-4.192,107.095-5.42,160.661
		c-1.856,81.195-3.057,162.403-4.239,243.611c-0.861,59.171-1.976,118.354-1.591,177.521c0.269,41.238,2.615,82.47,4.541,123.681
		c1.105,23.691,2.857,47.37,5.168,70.973c0.472,4.784,4.66,12.937,7.308,13.007c5.76,0.147,14.729-2.3,16.922-6.522
		c10.733-20.658,20.227-42.021,29.146-63.563c24.9-60.115,33.063-123.876,36.72-187.945c4.705-82.462,6.805-165.084,9.129-247.66
		c1.846-65.642,3.233-131.317,3.112-196.979c-0.071-39.895-3.653-79.771-5.2-119.672c-1.988-51.342-3.187-102.719-5.4-154.053
		c-1.008-23.313-3.896-46.543-5.504-69.844c-3.188-46.202-7.617-92.385-8.729-138.646c-1.556-64.634-2.447-129.399,0.034-193.973
		c1.757-45.623,9.275-91.055,14.812-136.497c2.545-20.903,6.43-41.649,9.838-62.448c3.041-18.558,13.248-22.539,28.832-11.825
		c15.088,10.367,30.52,20.238,45.76,30.383c10.988,7.313,10.809,18.816,9.602,29.665c-3.446,31.02-10.112,61.854-11.276,92.921
		c-2.388,63.693-2.656,127.49-2.554,191.242c0.074,44.974,2.105,89.941,3.466,134.906c0.432,14.199,1.76,28.367,2.239,42.57
		c1.537,45.354,3.97,90.719,3.984,136.079c0.02,53.673-1.662,107.361-3.436,161.017c-1.98,59.899-4.175,119.813-7.578,179.643
		c-4.455,78.33-9.523,156.639-15.588,234.857c-4.287,55.309-11.152,110.402-15.887,165.684c-2.229,26.021-1.873,52.249-3.175,78.355
		c-1.396,27.907-3.959,55.77-4.944,83.688c-1.472,41.563-4.279,83.438,8.912,123.819c4.049,12.392,11.067,23.973,17.83,35.265
		c3.858,6.447,20.819,4.491,30.45-2.226c13.238-9.23,23.277-21.231,27.625-36.666c6.938-24.612,13.861-49.36,18.472-74.476
		c7.373-40.17,14.268-80.524,18.737-121.093c5.027-45.604,6.859-91.55,10.595-137.308c5.928-72.686,12.563-145.305,18.315-217.995
		c2.713-34.241,3.746-68.612,6.121-102.885c3.521-50.849,8.397-101.613,11.078-152.503c1.729-32.961,0.059-66.09,0.83-99.122
		c1.045-44.959,3.604-89.887,4.258-134.848c0.369-25.126-2.004-50.286-2.771-75.44c-1-32.992-1.067-66.021-2.555-98.984
		c-2.346-52.152-6.332-104.238-8.178-156.404c-2.713-76.597-3.602-153.263,11.813-228.895c2.404-11.788,8.729-23.033,14.759-33.663
		c1.606-2.836,10.825-5.013,13.172-3.176c15.014,11.745,28.267,25.826,43.654,36.992c24.418,17.717,28.543,42.314,26.674,69.366
		c-4.293,62.219-8.896,124.415-13.568,186.604c-4.741,63.145-2.299,126.287-0.973,189.472c0.578,27.468-1.742,54.987-2.424,82.486
		c-0.935,37.581-1.604,75.168-2.3,112.756c-0.399,21.545-0.612,43.091-0.934,64.634c-0.506,34.456,0.129,68.98-1.885,103.354
		c-1.793,30.7-6.799,61.203-9.883,91.85c-4.273,42.437-7.933,84.933-12.136,127.375c-2.106,21.249-5.504,42.382-7.114,63.661
		c-1.729,22.813-1.242,45.803-3.152,68.601c-3.135,37.466-7.979,74.792-11.072,112.261c-3.057,37.043-5.961,74.164-6.939,111.307
		c-1.688,63.789-2.526,127.625-2.278,191.438c0.096,25.552,3.313,51.177,6.358,76.611c3.771,31.442,8.545,62.781,13.478,94.067
		c2.274,14.425,6.539,15.729,17.264,5.77c18.955-17.607,38.447-34.764,56.045-53.663c17.168-18.438,27.185-39.089,25.182-66.978
		c-3.106-43.354-0.469-87.1-0.778-130.67c-0.541-76.171-1.742-152.339-2.134-228.515c-0.209-40.368,1.259-80.743,0.947-121.111
		c-0.43-55.457-1.608-110.909-2.938-166.356c-0.438-18.342-1.779-36.714-3.759-54.959c-1.229-11.356,2.979-18.846,12.693-23.323
		c17.752-8.182,35.623-16.127,53.666-23.621c8.57-3.562,18.082,5.185,17.764,16.602c-0.61,22.028-2.202,44.028-2.807,66.061
		c-0.762,27.946-0.289,55.935-1.512,83.854c-2.754,63.105-5.984,126.201-9.47,189.271c-3.514,63.59-8.674,127.104-11.069,190.729
		c-2.459,65.071-3.129,130.229-3.289,195.355c-0.123,48.561,0.825,97.166,3.268,145.654c1.115,22.243,6.693,44.301,10.781,66.338
		c1.604,8.678,6.916,10.958,15.26,6.683c20.515-10.511,30.181-29.922,41.326-48.405c6.92-11.479,15.813-21.768,22.83-33.196
		c3.476-5.662,6.043-12.556,6.744-19.131c6.981-65.66,13.975-131.324,19.942-197.079c3.354-36.931,5.091-74.021,7.021-111.063
		c2.865-54.873,5.635-109.757,7.715-164.661c1.158-30.691,0.469-61.443,1.297-92.151c0.691-25.661,5.22-51.546,2.947-76.87
		c-3.412-38.129-1.74-78.342-29.768-110.409c-5.99-6.849-10.154-8.038-14.51-0.439c-3.777,6.594-5.271,14.475-8.904,21.182
		c-1.863,3.438-6.187,5.533-9.396,8.232c-2.031-4.076-6.522-8.749-5.701-12.125c5.867-24.043,12.074-48.061,19.607-71.624
		c10.713-33.504,59.563-30.289,78.809-11.973c28.248,26.891,38.941,61.234,40.646,97.24c3.199,67.72,2.465,135.63,2.688,203.466
		c0.037,11.771-3.26,23.558-5.012,35.334c1.562,0.256,3.125,0.517,4.682,0.771c3.093-17.757,6.009-35.541,9.31-53.262
		c5.938-31.897,11.024-64.017,18.479-95.563c7.479-31.62,16.869-62.828,26.447-93.9c8.025-26.047,16.892-51.952,32.117-74.938
		c7.029-10.61,16.049-20.74,29.879-18.803c15.596,2.187,31.266,8.229,38.27,23.646c10.765,23.688,21.533,47.772,28.259,72.776
		c4.885,18.162,3.75,38.062,4.381,57.215c1.408,43.06,1.627,86.163,3.465,129.199c2.488,58.161-5.219,115.178-15.067,172.289
		c-5.021,29.086-4.494,59.09-7.521,88.565c-4.115,40.09-7.516,80.37-14.305,120.037c-12.553,73.307-18.104,146.816-7.777,220.527
		c5.002,35.705,15.66,70.625,23.926,105.857c0.894,3.799,2.902,7.33,5.519,13.733c6.471-7.031,12.211-11.651,15.893-17.553
		c13.726-22.021,30.334-41.987,39.058-67.429c11.094-32.377,26.401-63.282,38.692-95.289c3.07-8.005,3.084-17.989,1.882-26.704
		c-6.07-43.839-13.025-87.548-19.648-131.313c-6.924-45.775-14.895-91.426-20.359-137.375c-3.928-33.005-5.526-66.387-6.271-99.646
		c-0.883-39.418-1.594-79.007,1.024-118.298c2.89-43.258,7.136-86.748,15.548-129.193c6.235-31.464,15.282-63.212,34.938-90.332
		c16.003-22.077,33.078-43.907,57.935-55.188c22.852-10.374,48.028-4.325,65.938,11.71c42.115,37.711,68.277,84.34,67.918,143.045
		c-0.09,14.563,2.375,29.152,2.105,43.702c-0.154,8.421-3.611,16.742-5.258,25.173c-10.531,53.819-19.541,107.983-32.015,161.342
		c-6.733,28.797-20.123,55.969-29.104,84.316c-10.631,33.543-18.631,67.94-29.849,101.271
		c-10.321,30.675-21.146,61.578-35.896,90.254c-14.633,28.455-15.592,56.729-10.367,86.537c3.785,21.572,6.806,43.421,12.582,64.482
		c9.658,35.229,21.125,69.969,32.082,104.83c6.443,20.492,12.396,41.223,20.414,61.096c6.402,15.861,15.228,30.813,23.717,45.74
		c4.81,8.446,11.701,8.699,17.156,0.391c17.064-26.007,35.861-51.164,50.08-78.671c16.768-32.44,29.375-67.029,43.967-100.607
		c4.354-10.011,10.354-19.409,13.766-29.696c6.313-19.037,12.98-38.219,16.48-57.875c12.205-68.561,25.563-137.063,33.844-206.143
		c8.715-72.714,13.354-145.923,12.931-219.428c-0.396-69.182-12.485-136.707-23.131-204.572c-2.543-16.226-2.58-32.855-3.504-49.317
		c-0.379-6.784,2.34-11.265,9.916-8.104c16.938,7.074,33.717,14.524,50.517,21.914c8.42,3.703,11.533,9.851,12.021,19.469
		c1.39,27.36,4.551,54.629,6.41,81.978c1.271,18.737,1.81,37.532,2.188,56.315c0.69,33.842,0.987,67.688,1.535,101.529
		c0.045,2.449,0.78,4.887,1.631,9.895c10.104-24.887,19.229-47.063,28.119-69.329c17.006-42.591,32.002-86.313,64.655-120.41
		c19.147-19.997,39.879-35.156,69.25-40.842c25.604-4.957,48.022-5.093,71.979,4.683c22.828,9.312,33.139,29.371,46.305,47.279
		c8.705,11.839,17.063,23.933,25.775,36.193c10.365-9.188,18.209-16.123,26.037-23.068c34.596-30.714,91.785-29.562,125.237,2.548
		c1.319,1.271,2.396,2.812,3.756,4.026c7.01,6.272,19.356,12.051,19.916,18.821c0.897,10.88-3.313,24.682-10.394,32.941
		c-5.787,6.756-18.905,7.229-28.774,10.495c-0.155-3.354-1.424-7.187-0.222-9.938c1.943-4.441,6.076-7.895,8.295-12.27
		c5.396-10.653,5.404-20.11-6.658-26.94c-10.776-6.102-20.684-8.654-28.283,4.089c-16.604,27.816-41.262,38.885-72.961,35.87
		c-1.778-0.172-3.639,0.765-5.449,0.716c-13.455-0.397-17.774,7.806-17.461,19.344c0.644,23.618,0.392,47.388,3.068,70.793
		c6.289,54.988,25.688,104.35,64.855,145.145c9.313,9.703,15.008,22.931,22.174,34.653c18.565,30.384,38.666,59.979,54.985,91.531
		c12.336,23.846,19.746,50.226,29.412,75.452c8.502,22.173,17.799,44.07,25.483,66.521c15.115,44.157,19.037,89.618,11.361,135.638
		c-7.049,42.265-13.689,84.73-23.828,126.302c-9.037,37.063-29.5,69.448-50.65,101.103c-12.479,18.679-27.104,34.884-47.506,44.406
		c-39.051,18.228-78.537,24.592-120.278,6.246c-22.64-9.947-45.978-17.371-64.996-34.41c-45.881-41.101-74.692-92.821-91.662-150.83
		c-8.276-28.294-13.574-58.422-14.033-87.813c-0.703-45.289,18.502-84.7,48.883-118.077c10.869-11.938,36.444-15.171,51.496-7.048
		c13.631,7.358,27.188,15.364,39.115,25.123c5.08,4.159,8.147,13.444,8.285,20.479c0.433,22.24-0.733,44.529-1.709,66.774
		c-0.867,19.771-8.328,29.14-26.131,33.89c-1.207,0.322-2.646-0.211-7.918-0.747c3.556-8.431,5.213-16.858,9.987-22.778
		c12.207-15.143,10.314-74.642-6.246-84.197c-15.424-8.902-33.848-13.414-51.508-17.351c-9.893-2.202-25.889,14.73-27.852,30.328
		c-4.412,34.876-10.564,70.142-9.209,104.991c2.074,53.681,19.057,104.781,56.551,144.097
		c30.146,31.611,68.057,57.281,113.879,57.375c36.484,0.071,71.494-8.674,93.125-45.973c15.914-27.427,32.783-53.759,42.088-84.488
		c11.086-36.604,15.563-73.987,11.813-111.636c-4.395-44.144-9.67-88.477-19.021-131.764c-8.108-37.549-25.853-72.063-46.896-104.7
		c-38.681-59.995-76.99-120.257-114.188-181.175c-8.603-14.082-14.69-30.854-17.396-47.145c-5.063-30.584-10.777-61.986-8.729-92.55
		c1.75-26.196,14.196-51.634,21.332-77.563c1.231-4.497,1.146-10.664-1.021-14.57c-12.854-23.152-26.306-45.985-40.049-68.632
		c-2.855-4.711-7.054-10.229-11.84-11.897c-41.043-14.32-67.836-6.966-95.56,27.913c-30.979,38.984-55.774,81.267-71.021,128.747
		c-8.746,27.23-18.101,54.481-23.857,82.406c-10.631,51.506-19.703,103.379-27.787,155.349
		c-7.582,48.718-13.195,97.745-19.414,146.671c-10.291,81.014-21.119,161.971-30.32,243.107
		c-8.112,71.533-14.059,143.313-21.6,214.916c-1.357,12.899,4.246,16.068,15.131,16.552c53.203,2.351,106.396,4.884,159.602,7.33
		c34.832,1.603,69.668,3.106,104.494,4.784c4.91,0.236,9.789,1.188,14.566,4.188c-20.4,0-40.805,0.125-61.207-0.025
		c-45.912-0.344-91.822-1.377-137.73-1.127c-89.049,0.488-177.106-8.481-263.08-31.446
		c-61.465-16.423-121.774-37.149-182.621-55.902c-9.205-2.836-18.35-6.235-27.787-7.912
		c-63.58-11.301-123.477-34.793-184.168-55.541c-40.739-13.93-80.975-29.348-121.344-44.342c-6.49-2.413-10.709-3.187-13.887,4.873
		c-8.93,22.641-23.416,41.016-42.66,56.294c-9.5,7.54-16.352,18.408-24.521,27.665c-2.104,2.383-4.439,5.873-7.045,6.243
		c-7.539,1.074-15.273,0.818-22.933,1.09c3.613-5.61,6.058-12.727,11.027-16.585c30.314-23.531,42.103-55.722,44.104-92.388
		c0.196-3.67-4.886-9.137-8.857-11.223c-8.42-4.418-18.213-6.445-24.832,2.961c-14.127,20.082-34.477,32.139-54.752,44.475
		c-13.479,8.205-23.905,21.818-41.364,22.933c-11.152,0.707-22.515,3.574-33.382,2.229c-30.416-3.772-60.549-7.479-91.315-2.771
		c-13.354,2.041-28-2.219-40.74,1.24c-28.201,7.646-49.715,26.604-67.846,48.953c-7.086,8.736-11.072,20.151-18.73,28.199
		c-5.041,5.303-14.293,9.573-21.324,9.124c-6.479-0.414-13.022-7.239-18.282-12.496c-1.023-1.021,2.768-9.01,6.043-11.707
		c5.577-4.598,12.616-7.373,18.848-11.228c17.188-10.616,33.92-21.229,40.285-42.735c1.621-5.465,9.311-10.146,15.241-13.146
		c17.144-8.661,34.646-16.688,52.365-24.095c6.148-2.569,13.328-3.05,20.107-3.7c20.553-1.971,41.123-3.854,61.727-5.155
		c10.012-0.632,11.156-8.044,10.465-14.425c-0.35-3.259-6.961-8.377-10.662-8.313c-20.452,0.363-40.924,3.572-61.309,2.987
		c-36.617-1.056-54.902,26.521-77.928,46.935c-19.137,16.96-38.049,34.178-56.98,51.358c-3.381,3.064-6.781,6.243-9.504,9.873
		c-13.086,17.438-30.854,22.202-50.922,17.239c-7.383-1.821-14.393-7.313-20.285-12.573c-11.93-10.645-16.479-10.813-25.84,2.064
		c-7.008,9.646-14.094,19.306-20.174,29.535c-5.273,8.879-14.15,13.572-21.742,9.801c-8.488-4.221-17.803-12.664-20.646-21.287
		c-9.866-29.896-15.596-60.88-15.356-92.694c0.035-4.887-1.842-9.782-6.101-15.379c-3.842,14.686-8.448,29.222-11.354,44.088
		c-6.322,32.345-11.547,64.903-17.938,97.231c-0.673,3.404-6.14,8.223-9.449,8.281c-8.418,0.151-14.854-3.728-14.889-14.023
		c-0.048-12.752-0.291-25.549-1.304-38.255c-3.012-37.89-7.418-75.69-9.473-113.625c-2.701-49.949-4.748-99.986-5.106-149.998
		c-0.326-45.851,1.618-91.729,3.264-137.572c0.674-18.733,3.748-37.38,4.674-56.114c0.754-15.234,14.824-10.565,21.895-16.179
		c1.875,5.382,2.414,11.948,5.912,15.884c7.009,7.877,16.39,12.198,15.406,26.414c-3.143,45.613-4.078,91.385-6.131,137.079
		c-1.459,32.498-3.635,64.968-4.865,97.472c-0.397,10.548,1.191,21.168,1.871,31.752c1.244,0.136,2.488,0.271,3.736,0.403
		c4.775-9.161,9.377-18.421,14.373-27.454c4.783-8.655,12.816-15.867,21.98-11.829c6.461,2.851,11.521,11.906,14.426,19.291
		c12.229,31.055,9.904,64.02,11.481,96.518c0.787,16.158,4.716,31.969,14.439,46.033c16.264-14.373,20.102-24.213,17.983-43.102
		c-4.438-39.627,2.68-76.592,25.365-110.006c7.156-10.535,18.893-17.744,29.064-13.257c9.334,4.119,21.366,17.115,20.926,25.624
		c-1.392,27.032-7.23,53.971-13.062,80.573c-2.51,11.433-10.965,21.563-13.44,33.002c-1.729,7.979-0.418,19.137,4.293,25.149
		c3.475,4.439,16.203,6.148,22.041,3.334c14.125-6.811,27.979-15.516,39.424-26.166c13.324-12.404,22.656-29.127,36.074-41.393
		c18.703-17.1,37.455-34.134,66.391-34.488c28.81-0.354,57.596-4.863,86.314-8.226c26.508-3.107,27.033-4.383,20.611-31.474
		c-0.109-0.445-0.021-1.104-0.293-1.318c-3.388-2.647-6.729-7.315-10.263-7.482c-17.787-0.832-35.637-0.185-53.45-0.609
		c-33.813-0.811-67.615-2.313-101.433-2.7c-5.385-0.063-12.934,2.64-15.842,6.682c-9.563,13.289-17.076,28.029-26.174,41.684
		c-3.238,4.862-8.591,11.321-13.248,11.556c-8.115,0.4-15.939-13.768-12.238-22.27c1.44-3.312,9.437-3.771,14.443-5.523
		c8.739-8.525,17.098-19.08,22.948-30.875c19.367-39.059,29.849-45.616,72.937-42.483c5.943,0.432,11.844,1.47,17.75,2.313
		c30.438,4.354,60.873,8.741,91.31,13.115c-7.437-8.032-15.949-13.818-24.873-18.881c-49.849-28.28-100.402-55.366-149.545-84.812
		c-58.23-34.893-115.064-72.104-172.938-107.604C964.647,1752.38,939.403,1739.413,914.666,1725.619z M727.045,1524.313
		c0-7.491,0.261-11.848-0.043-16.16c-1.918-27.441-4.791-54.852-5.762-82.323c-1.479-41.574-1.197-83.21-2.541-124.793
		c-0.978-30.105-3.848-60.149-4.914-90.257c-0.453-12.688,2.481-25.479,2.271-38.198c-0.558-33.217-2.269-66.417-2.99-99.631
		c-0.461-21.109,0.772-42.269-0.064-63.351c-2.617-65.832-6.033-131.633-8.799-197.459c-1.58-37.584-2.553-75.192-3.689-112.801
		c-0.776-25.629-0.717-51.304-2.18-76.893c-3.34-58.553-7.348-117.063-11.236-175.584c-0.252-3.794-1.815-7.5-3.688-14.859
		c-14.188,22.609-26.479,42.16-38.732,61.736c-22.032,35.182-43.832,70.512-66.135,105.521
		c-16.438,25.802-33.492,51.202-50.313,76.755c-17.58,26.699-33.689,54.649-59.636,74.562c-5.113,3.921-11.783,5.815-17.734,8.646
		c-2.115-5.229-4.41-10.396-6.274-15.707c-1.353-3.854-2.354-7.855-3.128-11.87c-7.801-40.437-14.16-81.209-23.643-121.244
		c-9.715-41.024-22.079-81.438-34.072-121.893c-4.906-16.544-11.88-32.469-17.914-48.675c-1.263,0.291-2.523,0.588-3.785,0.878
		c-1.875,20.832-4.514,41.628-5.395,62.497c-0.79,18.698,0.19,37.484,0.716,56.228c0.404,14.366,0.633,28.794,2.152,43.063
		c2.18,20.463,4.362,41.038,8.553,61.146c5.481,26.348,12.823,52.313,19.541,78.396c7.042,27.338,13.841,54.747,21.61,81.878
		c5.021,17.558,14.838,34.316,16.796,52.065c3.876,35.142,21.58,65.612,29.268,99.271c3.849,16.851,9.854,33.288,12.583,50.286
		c3.523,21.972,4.116,44.396,7.108,66.474c4.153,30.642,11.229,60.987,13.626,91.729c2.667,34.192,1.5,68.681,1.977,103.042
		c0.188,13.706,1.59,27.563,0,41.065c-1.04,8.866,0.012,14.894,6.967,20.407c33.987,26.975,67.491,54.566,101.808,81.116
		c36.983,28.615,74.656,56.34,112.084,84.39C715.616,1516.91,720.106,1519.649,727.045,1524.313z M2281.509,1816.881
		c-1.353-0.178-2.701-0.359-4.049-0.536c-1.242,3.364-2.982,6.632-3.644,10.104c-7.129,37.333-20.271,72.64-36.435,106.833
		c-8.41,17.789-19.082,34.551-26.903,52.567c-5.754,13.25-7.104,28.424-12.963,41.608c-10.521,23.676-24.711,45.812-34.125,69.856
		c-11.33,28.945-27.412,54.191-52.11,72.187c-19.23,14.011-35.318,14.205-46.854-7.92c-12.865-24.672-25.408-49.563-36.754-74.947
		c-4.752-10.628-5.506-22.965-9.06-34.215c-8.949-28.34-19.141-56.303-27.512-84.805c-5.977-20.335-9.814-41.302-14.6-61.982
		c-1.638,0.053-3.271,0.108-4.902,0.159c-2.773,4.564-6.232,8.855-8.223,13.744c-14.664,36.104-28.791,72.435-43.584,108.486
		c-11.791,28.734-23.938,57.338-36.752,85.629c-2.716,5.99-8.074,12.164-13.828,15.123c-13.918,7.166-24.529,4.945-36.41-16.646
		c-12.635-22.957-22.26-47.854-30.785-72.729c-17.41-50.791-19.961-104.441-23.639-157.194c-2.686-38.5,3.104-77.72,6.539-116.487
		c4.654-52.54,10.834-104.938,16.064-157.427c7.778-78.038,23.241-155.445,20.612-234.353c-1.903-57.14,4.437-114.91-12.707-170.992
		c-2.243-7.346-0.993-15.748-3.186-23.115c-2.238-7.506-6.729-14.34-10.232-21.471c-2.387,0.063-4.771,0.119-7.162,0.185
		c-7.631,17.801-16.371,35.225-22.645,53.494c-10.248,29.844-18.127,60.508-28.396,90.348
		c-15.104,43.896-26.082,88.119-29.146,134.97c-3.199,48.903-11.896,97.473-18.707,146.11
		c-5.718,40.787-12.492,81.43-18.228,122.217c-3.701,26.335-5.606,52.938-9.682,79.204c-6.855,44.255-13.377,88.648-22.715,132.407
		c-7.771,36.41-9.879,74.147-24.896,109.043c-4.385,10.188-5.362,21.845-8.104,33.688c4.348,1.992,8.354,4.162,12.586,5.716
		c59.807,21.985,119.317,44.847,179.592,65.479c40.719,13.938,82.543,24.627,123.824,36.951c12.696,3.79,25.276,8.012,37.805,12.347
		c29.908,10.338,59.379,22.129,89.709,31.012c43.922,12.865,88.287,24.345,132.774,35.107c25.213,6.102,51.06,9.589,80.354,14.93
		c-5.217-12.47-9.004-21.537-12.799-30.604c-4.75-11.367-9.146-22.221-6.006-35.555c6.308-26.74,12.813-53.691,15.724-80.934
		c6.383-59.712,10.987-119.629,15.5-179.528C2277.808,1895.646,2279.339,1856.241,2281.509,1816.881z M2003.894,1702.502
		c1.059,0.134,2.11,0.266,3.162,0.398c6.164-16.032,10.674-32.957,18.799-47.927c26.432-48.688,44.555-100.063,55.438-154.306
		c6.025-30.057,13.973-59.717,20.496-89.684c1.59-7.299,0.154-15.232,1.529-22.613c5.004-26.906,13.854-53.548,15.084-80.576
		c1.209-26.609-2.438-54.2-8.736-80.201c-7.346-30.332-16.146-61.076-40.957-83.716c-12.078-11.021-19.305-12.103-28.84,0.521
		c-6.02,7.974-12.814,16.589-15.094,25.93c-7.863,32.306-25.799,61.522-28.015,95.546c-2.944,45.227-8.463,90.354-9.713,135.604
		c-0.896,32.329,3.672,64.782,5.342,97.202c2.586,50.298,4.619,100.625,7.228,150.921
		C2000.528,1667.264,2002.442,1684.87,2003.894,1702.502z M1416.631,1976.874c7.605,5.331,14.104,9.886,21.394,14.992
		c-2.029-54.604-3.939-105.927-6.014-161.711c-37.479,34.829-52.394,84.106-98.25,105.057
		C1355.246,1954.188,1408.267,1979.204,1416.631,1976.874z M1150.092,1833.396c39.394,22.828,75.425,43.717,113.814,65.961
		c-6.838-55.842-13.117-107.09-19.396-158.329c-1.227-0.518-2.455-1.021-3.68-1.532
		C1221.315,1779.529,1196.442,1814.39,1150.092,1833.396z M396.506,291.271c-1.59,0.399-3.177,0.796-4.766,1.19
		c43.457,116.929,81.389,235.412,102.633,361.766c3.399-4.802,5.904-6.723,5.991-8.737c0.391-9.172-0.043-18.37,0.072-27.559
		c0.398-32.146-8.179-62.663-18.146-92.638c-17.162-51.63-35.146-103-53.656-154.161
		C418.881,344.166,407.275,317.872,396.506,291.271z M1431.899,2020.546c-0.568,7.01-0.67,11.479-1.338,15.861
		c-1.775,11.643,1.869,18.014,14.811,18.438c12.473,0.406,24.896,2.395,37.348,3.688c-15.104,7.604-30.532,14.063-46.516,16.007
		c-20.195,2.456-28.52,8.682-27.344,27.639c2.061,0.22,4.25,0.484,6.445,0.673c33.518,2.873,53.166-23.282,78.237-37.942
		c1.813-1.063,2.004-9.093,0.048-11.742C1478.636,2032.889,1454.136,2031.246,1431.899,2020.546z M1556.625,2038.23
		c5.134-35.237,10.154-69.752,15.181-104.267c-2.054-0.79-4.104-1.578-6.154-2.365c-13.746,33.78-33.65,62.876-63.623,86.369
		C1520.765,2024.924,1537.905,2031.283,1556.625,2038.23z M1004.323,1739.475c19.586,13.351,36.813,25.088,56.148,38.271
		c-2.597-37.512-4.935-71.268-7.271-105.02C1047.877,1701.709,1029.058,1721.434,1004.323,1739.475z M1393.244,2048.799
		c5.086-24.188,1.744-40.689-9.865-46.191c-0.465,5.694-0.918,11.186-1.43,17.384c-6.904-4.129-12.353-7.384-18.539-11.084
		C1357.912,2040.834,1367.683,2052.958,1393.244,2048.799z M1404.388,2007.045c0,16.782-0.213,28.544,0.217,40.283
		c0.068,1.988,2.611,4.881,4.604,5.521c2.195,0.715,7.146-0.277,7.332-1.233c2.117-10.589,4.855-21.37,4.418-31.976
		C1420.815,2016.016,1412.229,2012.74,1404.388,2007.045z M1070.703,2049.052c-14.81,5.542-20.58,26.663-15.178,54.545
		C1065.463,2085.438,1075.808,2070.323,1070.703,2049.052z M526.257,2071.583c-1.749-18.137-3.395-35.271-5.029-52.252
		C501.277,2034.327,502.963,2059.793,526.257,2071.583z M2740.81,1293.539c-0.979-1.348-1.961-2.695-2.938-4.042
		c-18.631-1.665-24.188,14.431-33.854,24.938c0.908,1.244,1.815,2.489,2.725,3.736
		C2718.097,1309.962,2729.453,1301.751,2740.81,1293.539z M1384.099,2084.535c-1.332-2.564-2.666-5.129-3.998-7.696
		c-5.431,2.449-11.777,3.928-15.863,7.799c-1.787,1.691,1.053,8.271,1.793,12.632
		C1372.049,2093.023,1378.075,2088.781,1384.099,2084.535z M1385.551,2098.785c1.496,0.897,2.988,1.8,4.482,2.701
		c9.719-3.398,9.086-12.996,12.231-20.332c-1.451-0.875-2.912-1.75-4.369-2.629
		C1393.782,2085.279,1389.668,2092.035,1385.551,2098.785z"/>
	<path d="M598.002,2311.911c0.5-10.04,1.541-20.091,1.248-30.106c-0.125-4.283-2.938-12.039-4.68-12.087
		c-6.713-0.168-16.277-0.202-19.756,3.938c-16.513,19.633-20.459,42.881-16.92,70.447c-2.414-2.729-6.687-5.338-6.882-8.218
		c-0.561-8.103-0.051-16.407,1.146-24.468c2.125-14.282,5.07-28.443,7.674-42.648c-1.807-1.102-3.608-2.205-5.418-3.309
		c-4.555,4.439-11.834,8.176-13.188,13.439c-5.838,22.666-9.938,45.771-14.98,70.25c-1.606-6.121-5.222-12.828-4.688-19.196
		c1.479-17.709,4.639-35.278,7.219-52.894c0.847-5.777,1.956-11.521,3.249-19.04c-33.649,32.994-42.41,68.859-23.054,89.479
		c-0.756,1-1.514,1.999-2.27,3.001c-3.977-3.364-10.295-6.081-11.447-10.229c-2.397-8.646-4.396-18.604-2.389-27.029
		c4.637-19.469,10.379-38.933,18.274-57.277c7.31-16.979,6.713-24.831-6.872-35.946c-5.051-4.129-8.587-10.788-11.131-16.983
		c-1.093-2.657,1.471-9.711,3.48-10.194c5.629-1.368,12.489-2.025,17.704,0.009c23.369,9.118,45.671,21.706,69.667,28.23
		c17.57,4.779,37.701,5.041,55.689,1.784c14.123-2.555,26.709-13.562,40.211-20.944c-35.271-33.398-71.437-58.537-114.144-73.61
		c-18.582-6.562-36.437-8.277-54.687,0.401c-10.743,5.115-21.438,10.688-32.728,14.197c-10.638,3.301-15.318,10.353-19.019,19.82
		c-4.48,11.475-9.887,22.6-15.133,33.763c-7.863,16.729-5.209,23.806,11.938,30.943c3.803,1.585,8.259,2.492,11.171,5.101
		c3.256,2.911,5.103,7.402,7.556,11.203c-4.397,1.231-9.043,4.006-13.149,3.365c-7.607-1.188-14.802-4.785-22.359-6.563
		c-4.201-0.986-11.563-1.975-12.688-0.086c-3.177,5.321-6.541,12.893-5.026,18.209c4.229,14.862,9.562,29.757,16.914,43.307
		c8.817,16.244,9.248,33.269,9.569,50.671c0.285,15.366,2.229,29.474,15.681,40.284c28.202,22.668,44.402,54.315,61.737,85.123
		c19.472,34.604,39.785,68.74,59.55,103.184c2.416,4.213,3.705,9.076,5.521,13.639c-1.386,0.797-2.767,1.598-4.146,2.396
		c-14.504-22.461-29.521-44.604-43.389-67.445c-21.799-35.893-42.467-72.469-64.492-108.211
		c-4.201-6.824-12.494-11.117-18.898-16.583c-0.947,0.678-1.896,1.356-2.846,2.036c1.4,5.104,2.039,10.584,4.32,15.261
		c25.252,51.731,38.11,107.295,50.924,162.899c7.5,32.555,17.031,64.77,22.258,97.678c5.799,36.492,8.301,73.561,11.143,110.463
		c1.885,24.443,0.164,49.236,3.057,73.515c4.777,40.06,19.064,76.79,43.42,109.618c18.176,24.498,34.629,50.271,52.072,75.318
		c17.441,25.051,34.822,50.157,52.828,74.799c30.274,41.425,62.619,81.443,90.906,124.169
		c14.184,21.416,32.375,37.293,50.586,54.095c29.106,26.855,64.879,41.778,100.491,56.877c6.711,2.843,15.111,1.771,22.746,2.331
		c2.218,0.166,4.729-1.013,6.677-0.337c31.61,10.973,59.196-1.395,86.125-15.371c49.338-25.611,95.317-56.331,138.328-91.66
		c44.621-36.649,91.25-70.967,134.524-109.111c33.621-29.635,64.476-62.652,94.529-95.996c16.746-18.569,30.52-40.17,43.565-61.66
		c23.791-39.194,46.762-78.936,68.601-119.245c9.321-17.195,14.627-36.531,22.311-54.658c10.729-25.31,22.854-50.057,32.791-75.662
		c15.748-40.585,30.285-81.637,45.125-122.565c17.354-47.854,35.144-95.562,51.416-143.778c7.884-23.358,11.144-48.3,19.312-71.532
		c12.676-36.052,26.608-71.771,42.231-106.633c9.888-22.063,23.656-42.406,35.988-63.342c3.947-6.689,8.869-12.808,13.334-19.189
		c10.928-15.621,24.096-22.534,43.531-14.393c18.868,7.906,38.274,14.772,57.887,20.61c28.457,8.468,57.363,15.436,85.985,23.349
		c40.058,11.08,79.76,23.591,120.107,33.439c81.045,19.792,162.822,35.895,246.314,41.395c31.895,2.104,63.795,4.375,95.729,5.675
		c12.752,0.519,25.599-1.763,38.414-2.122c38.478-1.086,77.021-0.879,115.422-3.104c24.082-1.396,47.972-6.247,71.944-9.573
		c4.728-0.654,9.443-1.429,14.312-1.063c-26.033,16.634-55.431,21.229-84.933,22.626c-49.848,2.354-99.848,4.463-149.688,3.127
		c-56.314-1.511-112.844-4.447-168.699-11.419c-49.389-6.166-98.291-17.403-146.834-28.821
		c-55.709-13.105-110.242-31.663-166.307-42.651c-47.492-9.313-93.849-21.312-139.896-35.64
		c-4.504-1.403-14.041,6.535-18.234,12.318c-10.133,13.968-19.895,28.563-27.225,44.125c-10.061,21.362-19.387,43.365-26.008,65.979
		c-7.414,25.352-10.4,51.975-17.187,77.543c-13.735,51.754-27.573,103.53-43.614,154.6c-10.328,32.895-24.752,64.49-37.115,96.75
		c-4.418,11.521-7.461,23.611-12.385,34.893c-14.451,33.132-29.062,66.215-44.484,98.898
		c-21.486,45.535-42.629,91.289-66.037,135.832c-22.26,42.362-47.125,83.371-71.119,124.811
		c-5.264,9.082-10.643,18.509-17.848,25.966c-11.434,11.839-24.006,22.704-36.891,32.987c-21.041,16.802-42.625,32.93-64.158,49.097
		c-17.928,13.459-36.219,26.432-54.156,39.873c-17.586,13.174-34.916,26.687-52.377,40.026
		c-31.813,24.308-63.711,48.5-95.418,72.939c-13.688,10.553-26.32,22.6-40.637,32.176c-15.865,10.61-32.633,20.155-49.851,28.414
		c-33.457,16.051-69.633,26.443-106.106,20.667c-42.412-6.713-87.281-11.063-121.4-42.204
		c-16.002-14.604-30.027-31.432-44.412-47.726c-8.754-9.914-17.008-20.368-24.543-31.232c-9.881-14.249-19.115-28.965-28.108-43.794
		c-11.808-19.465-23.834-38.854-34.437-58.976c-12.508-23.73-22.375-48.905-35.645-72.163
		c-12.881-22.585-28.381-43.704-43.178-65.158c-14.548-21.091-30.115-41.485-44.351-62.779c-8.344-12.476-15.104-26.033-22.32-39.24
		c-14.996-27.433-16.825-57.086-17.629-87.789c-1.026-39.336-3.758-78.984-10.329-117.729
		c-8.574-50.564-20.591-100.633-33.107-150.414c-9.021-35.88-18.979-71.875-32.768-106.104
		c-13.1-32.525-20.594-65.482-22.003-100.009c-1.503-37.063-12.021-71.573-29.479-103.674c-13.813-25.409-8.274-47.221,4.491-70.784
		c11.062-20.404,20.08-42.23,27.222-64.329c4.674-14.468,11.907-23.157,26.562-24.768c27.194-2.98,54.424-5.847,81.709-7.771
		c21.482-1.517,40.822,6.8,58.213,18.154c19.113,12.478,37.021,26.835,55.24,40.649c19.207,14.563,39.328,21.387,62.311,8.918
		c4.439-2.407,8.652-6.027,13.375-6.887c4.095-0.74,10.763,0.274,12.621,3.01c1.979,2.912,1.277,11.438-1.071,12.871
		c-12.312,7.478-26.062,12.609-38.265,20.229c-12.793,7.988-25.731,16.572-36.176,27.271
		c-10.977,11.237-20.352,24.207-36.561,27.459c-20.826,4.176-24.07,21.016-28.912,37.055c-1.793,5.932-3.334,11.936-4.996,17.906
		C599.965,2312.424,598.983,2312.17,598.002,2311.911z"/>
	<path d="M1745.506,3206.869c2.244-7.445,3.912-15.145,6.988-22.229c1.471-3.39,5.613-5.613,8.545-8.365
		c1.353,3.399,4.127,6.95,3.801,10.188c-1.112,10.938-1.952,22.221-5.385,32.545c-8.229,24.76,4.021,42.197,20.307,56.992
		c17.634,16.021,29.324,35.004,35.382,57.475c5.426,20.123,5.655,39.854-9.769,56.821c-8.625,9.496-16.389,19.787-24.994,29.312
		c-9.662,10.695-34.657,12.091-47.45,3.114c-13.177-9.245-17.343-26.47-9.658-41.729c6.152-12.238,14.256-23.009,28.85-25.149
		c4.094-0.602,9.271,2.066,12.955,4.652c1.656,1.166,1.898,8.074,0.996,8.482c-3.496,1.604-7.822,1.27-11.621,2.393
		c-3.106,0.919-8.041,2.492-8.399,4.464c-0.818,4.455-0.938,10.821,1.662,13.677c3.297,3.618,10.821,7.523,14.323,6.056
		c11.664-4.888,25.781-9.646,32.562-19.063c9.019-12.521,14.115-29.354,0.959-44.401c-6.334-7.238-11.918-15.317-19.092-21.599
		c-9.99-8.754-21.148-16.174-31.437-23.886c-3.496,6.752-8.861,19.223-16.049,30.527c-9.418,14.82-17.279,31.082-36.836,36.75
		c-22.221,6.438-42.195,2.147-56.799-16.529c-12.314-15.748-24.133-32.057-34.432-49.16c-12.22-20.287-23.822-41.139-33.42-62.76
		c-11.621-26.198-20.859-53.454-31.904-82.271c-3.955,5.778-10.088,11.254-11.812,17.873c-7.575,29.166-8.748,58.016,4.129,86.782
		c19.088,42.638,36.591,85.981,54.972,128.938c9.688,22.642,19.541,45.225,29.817,67.604c8.636,18.819,8.377,22.982-5.172,37.913
		c-23.121,25.478-32.459,25.742-64.522,12.935c-35.908-14.348-64.638-39.728-97.313-58.924
		c-12.006-7.052-19.664-21.476-29.379-32.475c-4.021-4.551-8.229-8.938-13.389-12.623c15.989,36.631,25.903,74.615,31.284,113.585
		c2.222,16.058,0.361,32.739-0.479,49.099c-0.15,2.85-4.816,8.071-6.801,7.799c-12.498-1.704-25.062-3.863-37.125-7.473
		c-7.652-2.28-9.379-7.27-2.592-14.396c3.996-4.196,6.577-10.98,7.258-16.893c3.668-31.898,0.789-62.946-13.834-92.278
		c-6.719-13.479-12.486-27.431-21.332-41.384c-0.551,10.873-1.834,21.77-1.5,32.607c0.818,26.598,2.469,53.161,3.615,79.752
		c0.711,16.507-7.935,27.725-21.354,35.785c-7.805,4.688-15.629,9.588-24.014,12.995c-12.168,4.942-10.746,13.004-6.656,22.222
		c2.045,4.611,4.383,9.092,6.633,13.606c5.371,10.776,2.785,18.461-7.76,23.153c-5.746,2.56-11.438,5.229-19.271,8.809
		c-5.859-13.689-11.824-27.639-18.933-44.229c-12.946,9.022-24.491,16.771-35.709,24.974c-15.774,11.535-32.317,20.22-52.563,21.502
		c-6.746,0.423-13.006,6.403-19.805,9.019c-2.953,1.133-7.338,1.234-9.882-0.241c-1.602-0.931-2.213-6.199-1.166-8.604
		c6.961-15.945,13.668-32.123,22.334-47.141c2.615-4.533,11.183-5.629,18.99-9.202c0,8.364,0,13.588,0,20.864
		c21.924-12.275,42.631-23.023,62.188-35.564c3.711-2.381,4.575-12.074,3.852-18.039c-4.107-33.666-9.33-67.191-13.67-100.832
		c-1.459-11.313-1.439-22.813-2.066-33.713c-1.625-0.896-2.666-1.896-3.133-1.678c-17.514,8.299-36.703,8.219-54.916,12.105
		c-13.328,2.845-25.613,18.34-34.912,30.774c-22.865,30.581-30.408,65.876-28.51,104.048c0.707,14.248-3.031,29.118-6.932,43.095
		c-5.482,19.653-12.854,38.794-19.787,58.021c-1.305,3.617-4.338,6.613-8.002,12.006c-19.164-22.336-35.082-44.854-43.691-70.83
		c-8.373-25.265-12.518-51.928-18.516-77.979c-1.932,0.016-3.865,0.027-5.803,0.041c-3.173,10.075-7.486,19.955-9.254,30.268
		c-3.009,17.568-3.666,35.543-6.681,53.104c-3.868,22.512-8.782,44.86-14.026,67.095c-0.896,3.802-5.707,6.681-9.343,10.681
		c-20.577-11.743-31.371-31.494-42.596-49.405c-21.033-33.567-38.721-69.216-58.451-103.618
		c-8.114-14.146-17.924-27.321-27.563-41.838c5.164-4.441,9.272-8.789,14.137-11.99c8.938-5.883,16.394-5.965,22.701,4.988
		c20.698,35.914,41.86,71.563,63.387,106.985c4.84,7.97,11.885,14.599,19.555,23.81c4.496-14.146,8.398-25.637,11.795-37.277
		c5.652-19.373,10.533-38.985,16.611-58.219c3.555-11.247,8.363-22.188,13.717-32.697c0.92-1.803,9.666-2.455,10.963-0.734
		c5.754,7.611,10.121,16.274,14.979,24.563c16.568,28.292,33.137,56.584,49.705,84.876c2.283-0.188,4.563-0.384,6.846-0.571
		c4.332-15.852,11.164-31.496,12.502-47.595c3.34-40.206,9.877-79.157,30.34-114.629c2.017-3.499,4.135-8.091,7.383-9.538
		c17.25-7.693,33.22-19.895,53.617-17.844c15.834,1.6,28.813-3.92,39.965-14.635c9.73-9.352,18.854-19.424,29.22-28
		c4.844-4.005,12.401-4.535,17.996-7.867c10.221-6.092,19.68-13.47,29.93-19.504c3.326-1.959,8.127-1.398,12.26-1.992
		c-1.149,4.354-0.944,10.063-3.696,12.838c-12.896,12.994-26.188,25.682-40.195,37.451c-6.777,5.694-9.441,10.95-8.021,19.928
		c5.875,37.104,10.808,74.354,16.558,111.479c1.381,8.905,4.575,17.534,7.539,28.523c10.53-8.241,25.34-11.762,28.121-26.814
		c4.735-25.66,8.735-51.554,11.18-77.521c2.578-27.377,3.119-54.952,4.145-82.457c0.164-4.368-2.229-8.775-2.658-13.237
		c-0.377-3.982,0.338-8.075,0.568-12.118c4.234,0.632,9.601-0.147,12.48,2.168c7.758,6.232,13.82,14.618,21.703,20.646
		c16.725,12.782,34.7,23.946,51.188,36.996c20.733,16.407,39.451,35.562,61.086,50.579c12.646,8.779,28.935,13.199,44.221,17.035
		c14.855,3.726,23.195-15.705,18.662-28.531c-4.875-13.813-12.614-26.687-16.713-40.667c-4.612-15.754-5.571-32.558-9.903-48.418
		c-5.523-20.229-15.05-39.568-18.822-60.038c-4.863-26.342-9.42-53.762-6.979-80.053c1.535-16.524,14.517-33.103,25.437-47.291
		c8.488-11.029,11.877-20.658,10.981-34.638c-1.479-23.159,6.197-44.157,24.359-60.104c6.896-6.052,14.139-11.729,20.778-18.041
		c9.254-8.793,19.97-10.282,31.947-8.021c17.457,3.307,26.076,20.379,16.31,35.482c-14.326,22.162-26.588,46.428-51.037,60.033
		c-8.861,4.934-10.103,12.441-7.871,21.131c6.616,25.771,14.805,50.728,30.705,72.795c15.202,21.104,27.795,44.158,43.75,64.627
		c11.039,14.163,25.743,25.494,39.004,37.885c5.418,5.063,11.022,4.676,14.813-1.973c10.798-18.938,21.425-37.986,31.695-57.213
		c1.271-2.376,1.156-6.805-0.248-9.092c-14.846-24.146-18.769-51.468-23.572-78.563c-0.123-0.713-1.032-1.276-1.311-1.603
		c-21.142,11.957-42.021,24.077-63.3,35.47c-3.229,1.731-8.271,0.094-12.469,0.016c1.254-4.453,1.082-10.637,4.014-13.067
		c14.798-12.281,29.313-25.608,46.045-34.658c16.134-8.729,22.666-24.161,33.73-36.373c3.119-3.438,8.166-5.132,14.918-9.187
		c-1.271,22.086-4.949,40.524-2.602,58.168c2.278,17.096,10.75,33.365,16.502,49.996
		C1742.571,3208.003,1744.036,3207.436,1745.506,3206.869z M1566.608,3091.025c17.631-8.805,39.858-42.912,38.563-58.573
		C1582.336,3034.928,1559.864,3067.997,1566.608,3091.025z"/>
	<path d="M942.33,3788.242c-45.348-9.965-86.346-18.487-128.135,3.603c0.77,2.712,1.68,6.032,2.647,9.335
		c6.168,21.031,13.187,41.857,18.226,63.152c3.35,14.15,4.965,28.934,5.455,43.498c1.159,34.863-22.154,64.537-63.688,52.027
		c-22.758-6.854-45.502-13.887-67.811-22.046c-19.113-6.992-23.226-16.729-15.785-35.513c8.367-21.141,17.758-41.875,25.604-60.224
		c-6.414,6.992-15.457,16.238-23.803,26.076c-19.801,23.34-44.725,38.657-74.021,46.323c-4.521,1.181-13.199-2.812-15.816-6.993
		c-10.646-17.046-19.662-35.112-29.332-52.771c-2.668-4.86-5.528-9.621-8.297-14.431c-1.25,0.21-2.5,0.418-3.75,0.632
		c-3.254,11.734-7.687,23.293-9.447,35.248c-2.039,13.847-11.414,19.188-22.063,17.012c-10.944-2.236-21.366-9.1-30.836-15.646
		c-4.972-3.438,2.823-15.247,10.301-16.615c3.387-0.625,8.413-2.104,9.367-4.521c5.062-12.759,9.593-25.797,13.066-39.06
		c0.873-3.348-1.851-8.8-4.598-11.688c-5.719-6.01-6.035-11.717,2.034-13.207c13.33-2.461,14.13-12.841,16.763-22.172
		c4.615-16.326,8.922-32.753,12.767-49.273c1.897-8.154,5.627-13.031,14.414-13.945c4.963-0.521,9.75-2.584,14.659-3.765
		c26.931-6.473,42.916,0.087,57.371,23.461c7.754,12.54,1.884,37.856-13.409,50.867c-12.502,10.639-26.144,20.062-39.939,28.999
		c-5.969,3.869-7.365,6.238-3.828,12.839c11.438,21.345,21.973,43.177,33.104,64.692c6.557,12.681,21.479,12.307,32.657-1.317
		c8.438-10.272,16.607-20.927,23.57-32.227c23.17-37.597,54.771-67.427,87.113-96.681c11.83-10.692,18.836-10.58,28.564,1.912
		c4.731,6.077,8.248,13.105,13.272,21.265c8.928-2.75,18.826-4.712,27.756-8.798c13.578-6.219,27.382-7.781,41.519-4.359
		c23.029,5.584,45.455,1.725,68.229-1.764c8.979-1.371,18.646,1.772,27.652,6.074c13.726-7.248,27.281-14.836,41.215-21.654
		c15.646-7.648,25.218-0.449,26.638,16.457c2.227,26.478,6.5,52.777,11.836,79.908c4.879-19.009,8.961-38.271,14.896-56.949
		c4.621-14.537,11.103-28.566,18.024-42.18c0.875-1.72,11.451-1.478,14.152,1.228c10.223,10.267,20.928,20.848,28.017,33.271
		c15.123,26.521,28.104,54.256,42.836,83.224c4.239-6.566,10.521-13.688,13.883-21.991c9.461-23.359,17.508-47.292,26.646-70.793
		c1.802-4.638,6.004-8.343,9.104-12.479c3.668,3.679,8.729,6.711,10.772,11.138c11.912,25.729,22.552,52.063,34.763,77.647
		c8.618,18.063,18.414,35.65,28.813,52.764c19.021,31.302,33.592,33.162,64.017,13.569c40.346-25.978,73.553-58.974,101.565-97.422
		c7.23-9.921,12.678-21.3,17.726-32.555c1.455-3.243-0.248-9.033-2.349-12.554c-11.053-18.485-32.735-23.252-54.202-11.67
		c-8.009,4.316-15.55,9.857-22.433,15.849c-11.356,9.884-12.666,19.938-5.129,30.195c8.451,11.502,13.914,12.153,29.32,3.505
		c1.596-0.896,3.16-1.881,4.836-2.583c0.762-0.321,1.773-0.061,4.402-0.061c-0.975,3.119-1.209,6.115-2.693,8.248
		c-7.889,11.386-26.377,19.907-36.229,17.063c-17.801-5.146-26.726-16.688-23.414-36.867c8.209-50.023,54.295-80.729,101.647-55.006
		c33.629,18.267,43.55,46.787,27.043,78.83c-5.475,10.622-14.559,19.497-22.571,28.668c-11.943,13.674-22.496,29.637-37.039,39.744
		c-30.613,21.278-62.843,40.464-95.543,58.442c-23.824,13.104-50.082,4.957-67.457-19.684
		c-12.629-17.901-23.949-36.938-33.884-56.474c-9.875-19.42-17.264-40.102-25.821-60.188c-0.814-1.914-2.213-3.58-4.48-7.146
		c-7.709,19.928-13.961,38.386-21.947,56.063c-7.963,17.61-17.664,34.436-28.016,54.311
		c-25.861-30.493-37.789-67.213-61.021-100.824c-13.887,36.956-26.803,71.05-39.473,105.231c-3.176,8.577-4.643,17.9-8.625,26.037
		c-2.592,5.292-8.313,9.058-12.635,13.504c-5.207-5.776-13.777-10.964-14.916-17.454c-2.351-13.361-0.658-27.423-0.752-41.199
		c-0.107-16.086,1.199-32.366-0.863-48.209c-3.447-26.51-9.082-52.731-14.104-80.765c-7.941,2.396-13.015,4.14-18.189,5.435
		c-9.303,2.326-11.605,7.674-8.127,16.43c19.822,49.887,12.09,99.021-4.391,147.846c-0.841,2.492-2.265,5.188-4.216,6.84
		c-22.897,19.377-50.521,20.838-78.409,19.158c-15.461-0.932-23.634-12.156-29.429-25.701c-7.979-18.637-9.659-36.146,0.689-55.132
		C886.94,3847.309,908.752,3816.178,942.33,3788.242z M778.383,3815.89c-18.979,17.212-32.95,35.884-43.34,56.694
		c-5.943,11.895-9.361,25.529-11.361,38.768c-1.645,10.897,3.572,19.854,16.613,20.7c10.848,0.712,21.801,2.58,32.539,1.745
		c28.793-2.236,42.715-20.834,34.131-48.456C799.836,3862.406,788.776,3840.693,778.383,3815.89z M955.494,3798.92
		c-19.818,9.318-30.154,24.248-39.539,39.971c-15.182,25.441-16.774,53.993-16.443,82.338c0.181,15.651,12.076,20.398,24.638,10.842
		c7.021-5.345,13.998-12.254,17.76-20.025c6.123-12.646,9.983-26.458,14.098-39.992
		C963.217,3848.314,962.64,3824.547,955.494,3798.92z M575.707,3788.063c1.293,0.774,2.586,1.556,3.875,2.332
		c13.41-9.104,27.621-17.26,39.937-27.652c7.61-6.43,12.096-16.436,6.239-27.167c-4.5-8.251-10.518-12.783-21.016-9.935
		c-11.218,3.041-18.668,8.496-20.843,20.525c-1.772,9.82-4.688,19.423-6.782,29.189
		C576.228,3779.504,576.153,3783.821,575.707,3788.063z M730.11,3822.773c0.979,0.646,1.961,1.3,2.94,1.942
		c9.974-8.532,19.979-17.034,29.91-25.614c10.521-9.099,10.476-11.775-1.606-23.553
		C750.799,3791.504,740.453,3807.139,730.11,3822.773z"/>
	<path d="M585.536,3341.598c-15.379,31.171-30.756,62.334-46.133,93.499c1.363,0.804,2.727,1.604,4.09,2.405
		c9.393-11.243,18.387-22.852,28.27-33.646c14.818-16.188,29.211-32.862,50.634-41.313c18.518-7.298,23.905-4.741,27.155,14.657
		c4.3,25.629-9.094,45.563-22.971,63.98c-12.217,16.222-28.646,29.212-42.416,44.361c-2.891,3.185-4.471,10.41-2.932,14.307
		c10.926,27.659,22.381,55.136,34.699,82.2c3.283,7.221,9.75,13.206,15.477,19.054c7.613,7.769,15.08,8.593,23.492-0.382
		c7.48-7.98,17.713-13.443,24.906-21.624c7.596-8.646,15.139-18.432,18.949-29.063c6.42-17.908,9.539-36.978,14.668-55.382
		c6.008-21.525,11.502-43.336,19.68-64.05c3.018-7.646,12.531-16.396,20.033-17.377c5.444-0.711,15.059,9.369,18.291,16.646
		c11.313,25.463,20.952,51.688,30.545,77.877c2.291,6.239,2.629,13.448,2.645,20.217c0.027,11.354,3.898,17.502,16.322,15.35
		c2.063-0.356,4.328,0.459,7.563,0.868c-26.241,27.797-4.498,50.963,5.978,74.67c5.039,11.403,10.861,22.396,24.412,27.981
		c15.727,6.483,28.227,3.563,34.854-12.146c3.555-8.435,5.855-17.39,9.353-25.853c2.088-5.068,5.379-9.638,8.022-14.25
		c3.148,1.498,4.525,1.726,4.676,2.279c5.129,18.81-8.616,60.028-25.229,68.657c-20.018,10.404-64.979,8.399-77.809-24.427
		c-8.472-21.669-15.752-43.805-23.613-65.708c-5.678-15.815-10.471-17.604-24.906-9.13c-2.734,1.604-4.805,4.545-7.658,5.674
		c-2.389,0.945-5.465,0.145-8.24,0.113c0.679-2.385,0.586-5.9,2.154-6.947c6.748-4.507,13.631-9.188,21.129-12.079
		c7.648-2.955,11.359-5.774,8.623-14.938c-7.02-23.509-13.078-47.298-19.52-70.972c-1.234-0.007-2.469-0.016-3.699-0.021
		c-3.637,11.199-7.986,22.227-10.783,33.63c-10.145,41.341-19.709,82.825-29.731,124.2c-0.634,2.608-3.504,6.795-5,6.657
		c-3.588-0.331-8.938-1.961-10.064-4.575c-3.02-7.011-4.192-14.814-6.043-22.061c-9.512,3.533-19.19,7.884-29.299,10.705
		c-13.478,3.758-27.24,8.337-40.959,8.604c-7.562,0.143-16.574-6.486-22.676-12.391c-19.152-18.543-23.959-44.617-33.908-68.076
		c-6.742-15.896-15.271-31.205-24.479-45.847c-7.481-11.896-6.69-19.081,4.482-27.088c20.08-14.396,40.051-29.012,59.211-44.585
		c14.211-11.552,15.295-22.617,5.197-43.122c-16.678,18.651-33.185,35.858-48.188,54.282
		c-11.771,14.462-25.518,29.052-31.637,46.021c-12.452,34.521-30.461,65.385-51,95.203c-2.726,3.957-6.353,7.291-9.552,10.904
		c-12.834-11.299-15.019-27.962-8.299-43.844c8.358-19.752,14.963-40.263,23.563-59.898c6.228-14.202,15.603-27.057,21.565-41.342
		c12.092-28.951,22.929-58.429,34.057-87.771C547.472,3346.225,570.172,3337.669,585.536,3341.598z"/>
	<path d="M771.989,3006.061c11.848-16.123,22.725-29.967,32.494-44.554c5.979-8.925,13.76-18.31,3.824-30.093
		c-1.994-2.359-1.957-10.333-0.707-10.886c7.67-3.405,15.903-5.608,24.057-7.831c4.512-1.229,10.217-0.328,13.678-2.787
		c11.924-8.483,23.01-18.135,34.574-27.133c27.5-21.396,38.543-14.291,67.104,1.461c2.373,1.312,4.31,3.414,6.443,5.146
		c9.795,7.928,19.059,11.157,27.154-2.347c1.59-2.65,4.537-4.473,6.803-6.729c14.822-14.766,17.975-14.895,35.055-3.259
		c25.916,17.657,46.998,39.85,67.17,63.905c12.621,15.045,27.082,31.509,49.063,35.635c2.758,0.517,5.194,2.748,11.2,6.082
		c-26.27,14.938-49.926,28.394-73.586,41.84c-4.676,2.659-10.319,4.384-13.877,8.105c-10.987,11.521-23.104,22.637-31.233,36.057
		c-11.938,19.693-33.092,21.158-50.402,30.204c-48.553,25.37-87.95-1.091-128.024-23.061c-2.123-1.166-3.701-4.061-4.662-6.491
		c-7.713-19.542-22.375-31.194-41.096-39.886C795.153,3023.944,784.938,3014.889,771.989,3006.061z M813.485,3005.438
		c15.498,13.984,28.586,26.354,42.313,37.97c7.48,6.325,15.457,14.812,24.23,16.293c17.613,2.97,35.924,2.188,53.949,2.145
		c6.289-0.017,12.567-3.503,18.862-3.526c56.605-0.248,98.99-34.015,144.371-60.729c0.957-0.563,1.293-2.182,2.244-3.888
		c-9.551-2.255-19.473-2.788-27.603-6.874c-19.299-9.718-39.084-15.859-60.672-12.904c-11.486,1.574-22.604,5.636-34.061,7.614
		c-28.564,4.933-58.229,0.829-86.361,10.343c-2.254,0.76-6.359-2.623-9.064-4.771c-9.662-7.645-19.858-8.196-30.53-2.741
		c-8.064,4.12-15.982,8.541-23.898,12.948C822.34,3000.063,817.551,3003.035,813.485,3005.438z M839.386,2955.857
		c0.575,1.291,1.155,2.584,1.731,3.875c4.729-0.424,9.455-0.911,14.188-1.248c17.752-1.261,35.722-4.838,53.216-3.237
		c46.684,4.271,92.711,2.18,139.799-8.462c-14.738-11.99-29.039-23.622-43.678-35.537c-21.246,20-47.281,20.037-70.938,10.951
		c-21.615-8.309-38.934-9.418-56.986,5.319C864.623,2937.396,851.853,2946.441,839.386,2955.857z"/>
	<path d="M268.457,3228.719c2.752-8.34,4.089-17.324,8.496-24.397c4.714-7.574,11.56-14.392,18.803-19.737
		c29.271-21.604,61.085-34.993,98.654-27.585c32.31,6.373,64.038,14.11,86.722,40.646c18.228,21.316,33.221,44.709,40.025,72.316
		c4.334,17.582,8.232,35.336,11.027,53.218c3.81,24.365-10.488,44.065-19.675,64.588c-10.059,22.472-19.778,46.448-35.516,64.72
		c-26.601,30.888-59.642,52.457-103.513,55.202c-29.629,1.854-51.859-11.444-74.5-25.463c-24.197-14.987-25.229-39.98-23.5-64.816
		c0.599-8.515,3.888-17.002,6.896-25.146c5.372-14.516,15.189-21.034,30.457-20.602c2.694,0.073,6.743,1.841,7.602,3.896
		c0.918,2.201-0.246,6.7-2.127,8.428c-17.4,15.974-14.364,38.685-18.588,58.636c-1.188,5.621,5.811,15.633,11.746,19.668
		c31.806,21.614,56.146,19.883,89.313-3.686c40.894-29.056,70.146-66.333,83.769-115.219c2.694-9.668,7.201-18.815,10.442-28.351
		c8.44-24.838-1.618-46.976-11.075-68.855c-14.043-32.491-36.398-57.031-70.6-69c-26.644-9.324-53.039-11.087-77.813,5.541
		C313.878,3197.234,292.53,3212.179,268.457,3228.719z"/>
	<path d="M869.623,508.427c-6.363-9.204-4.521-15.583,2.465-22.633c18.841-18.999,40.541-20.985,64.498-12.826
		c22.718,7.74,29.314,25.673,33.228,47.554c7.35,41.104-9.23,73.23-34.701,102.381c-16.139,18.471-48.248,24.359-70.404,14.628
		c-19-8.354-27.483-24.775-28.789-43.667c-1.315-19.063,0.959-38.414,2.445-57.573c0.211-2.725,5.688-7.697,7.299-7.185
		c5.867,1.895,14.301,4.516,15.932,8.98c2.996,8.22,1.543,17.982,2.562,27.031c0.535,4.764,1.187,10.204,3.795,13.935
		c15.75,22.521,23.394,22.439,36.871-0.953c12.813-22.245,19.127-46.104,6.642-70.398c-8.92-17.356-10.125-16.934-27.683-8.534
		C878.998,501.445,874.817,504.977,869.623,508.427z"/>
	<path d="M1514.815,2102.425c-15.996,17.681-31.76,35.572-48.09,52.938c-7.203,7.657-5.621,14.544,1.383,19.716
		c9.752,7.204,11.895,16.669,12.158,27.686c0.432,17.676,1.649,35.34,1.733,53.014c0.021,4.251-3.113,8.516-5.57,14.729
		c-2.821-19.158-3.278-36.049-8.235-51.502c-3.982-12.435-13.244-23.23-20.646-34.435c-0.879-1.322-6.101-1.737-7.098-0.611
		c-2.105,2.364-4.129,6.222-3.732,9.14c1.652,12.219,5.396,24.239,6.15,36.476c1.063,17.262,0.438,34.653-0.121,51.969
		c-0.117,3.556-3.144,7.017-7.625,9.988c0-15.111,1.896-30.534-0.541-45.242c-2.365-14.299-9.185-27.856-14.115-41.943
		c-16.19,4.911-12.832,13.373-11.012,22.071c3.645,17.439,7.858,34.939,9.188,52.618c0.695,9.173-4.256,18.772-8.483,27.816
		c6.534-23.892,3.955-46.073-9.306-66.938c-6.293-9.903-19.219-13.421-30.295-10.377c-29.27,8.044-58.03,11.341-88.975,3.443
		c-19.564-4.989-34.457-14.45-48.094-26.759c-8.729-7.874-14.229-19.52-20.334-29.961c-1.367-2.336-0.23-8.852,1.533-9.689
		c3.073-1.46,8.01-1.069,11.334,0.412c14.903,6.641,30.211,12.793,44.096,21.225c32.588,19.789,65.512,13.388,97.861,1.711
		c22.297-8.043,44.252-18.061,64.604-30.145c15.506-9.21,28.272-23.037,42.229-34.847c8.402-7.106,16.39-14.782,25.279-21.205
		c3.816-2.752,9.463-2.967,14.279-4.334C1514.526,2100.396,1514.67,2101.412,1514.815,2102.425z"/>
	<path d="M1427.401,811.05c-1.439-46.267,21.291-82.126,51.268-113.908c16.166-17.136,49.072-5.086,56.293,18.548
		c6.459,21.105,2.98,41.729-1.207,62.444c-1.266,6.267-3.598,12.325-4.695,18.609c-5.389,30.877-27.166,49.05-51.731,63.563
		c-19.336,11.43-46.883-8.367-49.848-34.145C1426.912,821.188,1427.401,816.091,1427.401,811.05z M1502.34,718.123
		c-38.397,5.859-52.444,74.501-31.518,102.156c1.446,1.918,8.69,2.419,10.317,0.74c7.168-7.387,15.312-14.901,19.351-24.031
		C1511.743,771.548,1514.416,745.229,1502.34,718.123z"/>
	<path d="M415.465,3267.041c-16.505,4.521-22.042,14.359-23.227,27.721c-0.345,3.853-3.604,7.445-5.527,11.158
		c-3.577-3.551-8.89-6.472-10.438-10.754c-7.125-19.695,1.734-34.466,16.418-46.869c7.705-6.51,15.891-12.514,23.094-19.539
		c8.893-8.674,20.048-10.705,28.638-3.99c6.897,5.394,13.364,16.359,13.163,24.689c-0.332,13.727-4.742,27.919-10.041,40.846
		c-11.093,27.065-22.48,54.193-36.367,79.879c-14.021,25.945-30.844,50.437-47.414,74.898c-2.476,3.656-11.352,6.347-15.354,4.732
		c-4.921-1.979-7.843-8.943-11.626-13.757c1.938,0.156,3.876,0.313,5.813,0.472c10.028-18.154,20.896-35.906,29.892-54.563
		c12.724-26.389,24.736-53.176,35.681-80.35C412.496,3290.857,413.14,3278.614,415.465,3267.041z"/>
	<path d="M2613.216,1126.714c48.297-35.931,59.756-87.28,62.162-143.164c-27.707,5.792-39.664,0.175-45.215-21.485
		c-1.271-4.961-1.355-11.403,0.774-15.841c8.297-17.274,17.438-34.166,26.801-50.899c5.158-9.229,13.549-10.229,22.658-6.198
		c8.763,3.877,15.879,8.729,14.756,20.36c-2.979,30.846-4.392,61.885-8.455,92.576c-2.903,21.916-8.269,43.62-14.008,65.021
		C2664.489,1097.646,2643.567,1116.818,2613.216,1126.714z"/>
	<path d="M995.722,2701.896c-11.652,11.856-22.068,25.484-35.484,34.805c-6.467,4.49-19.783,3.68-27.848,0.231
		c-11.813-5.051-21.646-14.688-32.408-22.248c-15.656-11.002-31.393-21.896-50.184-34.979c-2.979,8.986-8.224,17.209-7.728,25.068
		c0.756,11.922,5.504,23.594,8.557,35.362c-1.211,0.502-2.414,1.002-3.625,1.504c-1.698-3.985-3.649-7.893-5.018-11.989
		c-0.976-2.925-0.865-6.188-1.765-9.146c-1.86-6.152-7.047-13.098-5.541-18.121c3.623-12.068,9.961-23.412,16.095-34.561
		c1.104-2.011,7.168-3.322,9.711-2.191c14.979,6.659,30.039,13.395,44.096,21.739c5.01,2.974,6.916,10.834,10.961,15.888
		c3.799,4.752,8.062,9.452,13.027,12.845c4.012,2.742,9.561,3.102,14.094,5.229c12.106,5.676,21.635,3.782,30.221-7.149
		c5.082-6.476,12.373-11.217,18.67-16.738C992.944,2698.926,994.334,2700.41,995.722,2701.896z"/>
	<path d="M1604.774,2305.009c-3.512,4.246-6.424,9.243-10.635,12.604c-22.152,17.688-46.562,33.063-66.334,53.056
		c-13.349,13.496-22.359,32.464-29.724,50.45c-16.803,41.063-31.444,83.013-46.873,124.638c-4.17,11.25-8,22.624-11.983,33.943
		c-1.877-0.632-3.758-1.257-5.639-1.886c6.215-19.879,11.532-40.096,18.842-59.563c12.826-34.174,26.896-67.885,40.402-101.803
		c3.707-9.313,5.948-19.52,11.239-27.8c6.709-10.504,15.037-20.312,24.103-28.907c16.563-15.72,33.977-30.559,51.445-45.281
		c6.346-5.347,13.854-9.313,20.832-13.911C1601.89,2302.035,1603.338,2303.521,1604.774,2305.009z"/>
	<path d="M924.118,3159.374c-5.348-16.124,3.184-22.59,10.766-27.334c22.613-14.142,41.597-0.132,61,8.952
		c0.021,1.264,0.041,2.523,0.062,3.791c-6.467,0-14.271,2.361-19.176-0.408C955.392,3132.302,938.487,3135.957,924.118,3159.374z"/>
	<path d="M1063.448,2662.918c0.521,5.285,0.979,6.346,0.635,6.941c-8.59,14.821-17.926,29.258-25.686,44.502
		c-5.031,9.887-10.877,11.188-20.441,5.886c3.025-7.101,16.269-11.707,3.953-21.658
		C1036.028,2686.465,1048.789,2675.506,1063.448,2662.918z"/>
	<path d="M1393.909,2649.47c11.199-20.411,22.395-40.821,33.592-61.229c1.084,0.604,2.166,1.204,3.25,1.805
		c-4.971,23.985-21.44,41.665-34.008,61.489C1395.797,2650.85,1394.851,2650.159,1393.909,2649.47z"/>
</g>
</svg>
